<?xml version="1.0" encoding="utf-8"?>
<!-- Generator: Adobe Illustrator 22.1.0, SVG Export Plug-In . SVG Version: 6.00 Build 0)  -->
<svg version="1.1" id="Capa_1" xmlns="http://www.w3.org/2000/svg" xmlns:xlink="http://www.w3.org/1999/xlink" x="0px" y="0px"
	 viewBox="0 0 57 57" style="enable-background:new 0 0 57 57;" xml:space="preserve">
<path d="M0.4,29.3l27,19c0.3,0.2,0.7,0.2,1,0.1c0.3-0.2,0.5-0.5,0.5-0.9l0-17.8l26.4,18.6c0.3,0.2,0.7,0.2,1,0.1
	c0.3-0.2,0.5-0.5,0.5-0.9l0-38c0-0.4-0.2-0.7-0.5-0.9c-0.1-0.1-0.3-0.1-0.5-0.1c-0.2,0-0.4,0.1-0.6,0.2L29,27.3l0-17.8
	c0-0.4-0.2-0.7-0.5-0.9c-0.1-0.1-0.3-0.1-0.5-0.1c-0.2,0-0.4,0.1-0.6,0.2l-27,19C0.2,27.9,0,28.2,0,28.5S0.2,29.1,0.4,29.3z
	 M55,11.4l0,34.1L30.7,28.5L55,11.4z M27,11.4l0,34.1L2.7,28.5L27,11.4z"/>
</svg>
