<?xml version="1.0" encoding="utf-8"?>
<!-- Generator: Adobe Illustrator 22.1.0, SVG Export Plug-In . SVG Version: 6.00 Build 0)  -->
<svg version="1.1" id="Calque_1" xmlns="http://www.w3.org/2000/svg" xmlns:xlink="http://www.w3.org/1999/xlink" x="0px" y="0px"
	 viewBox="0 0 651 478" style="enable-background:new 0 0 651 478;" xml:space="preserve">
<style type="text/css">
	.st0{fill:none;}
	.st1{fill:none;stroke:#000000;stroke-width:10;stroke-miterlimit:10;}
	.st2{fill:#54575F;}
	.st3{fill:#82858D;}
	.st4{fill:#222327;}
	.st5{fill:#5D371F;}
	.st6{fill:#8D94A1;}
	.st7{fill:#899095;}
	.st8{fill:none;stroke:#000000;stroke-width:0.25;stroke-miterlimit:10;}
</style>
<g id="Calque_3">
	<g>
		<g>
			<path class="st0" d="M632,470H21c-6.6,0-12-5.4-12-12V20c0-6.6,5.4-12,12-12h611c6.6,0,12,5.4,12,12v438
				C644,464.6,638.6,470,632,470z"/>
			<path class="st1" d="M632,470H21c-6.6,0-12-5.4-12-12V20c0-6.6,5.4-12,12-12h611c6.6,0,12,5.4,12,12v438
				C644,464.6,638.6,470,632,470z"/>
		</g>
	</g>
</g>
<g id="Calque_2_1_">
	
		<image style="overflow:visible;opacity:0.5;enable-background:new    ;" width="178" height="184" xlink:href="DB4914E1.png"  transform="matrix(1 0 0 1 139 247)">
	</image>
	<g>
		<g>
			<g>
				
					<ellipse transform="matrix(0.2836 -0.9589 0.9589 0.2836 -167.1739 453.6741)" class="st2" cx="220.1" cy="338.7" rx="62" ry="49"/>
			</g>
			<g>
				
					<ellipse transform="matrix(0.2836 -0.9589 0.9589 0.2836 -162.9549 464.9298)" class="st3" cx="229.7" cy="341.5" rx="60.3" ry="49"/>
			</g>
			<g>
				
					<ellipse transform="matrix(0.2836 -0.9589 0.9589 0.2836 -159.6624 473.6373)" class="st4" cx="237.2" cy="343.7" rx="57.3" ry="49"/>
			</g>
			<g>
				<circle class="st5" cx="240.5" cy="301.6" r="4.4"/>
			</g>
			<g>
				<circle class="st5" cx="264.8" cy="312.4" r="4.4"/>
			</g>
			<g>
				<circle class="st5" cx="273.3" cy="340.5" r="4.4"/>
			</g>
			<g>
				<circle class="st5" cx="264.4" cy="365.4" r="4.4"/>
			</g>
			<g>
				<circle class="st5" cx="242.6" cy="381.1" r="4.4"/>
			</g>
			<g>
				<circle class="st5" cx="217" cy="315" r="4.4"/>
			</g>
			<g>
				<circle class="st5" cx="203.1" cy="340.2" r="4.4"/>
			</g>
			<g>
				<circle class="st5" cx="212.7" cy="371.9" r="4.4"/>
			</g>
			<g>
				
					<ellipse transform="matrix(0.2273 -0.9738 0.9738 0.2273 -148.8581 496.8078)" class="st6" cx="238.6" cy="342.2" rx="20.3" ry="15.3"/>
			</g>
		</g>
	</g>
</g>
<g id="Calque_1_1_">
	
		<image style="overflow:visible;opacity:0.5;enable-background:new    ;" width="427" height="440" xlink:href="DB4914E3.png"  transform="matrix(1 0 0 1 84 13)">
	</image>
	<g>
		<g>
			<g>
				<g>
					<path class="st4" d="M454.2,271.2c-1.6,2.1-3.4,4.1-5.2,5.9c-1.8,1.8-3.8,3.4-5.8,4.9l-3.3,2.5l-3.3,2.5
						c-5.1,4.2-9.4,7.9-13.1,11.2c-3.6,3.3-6.6,6.2-8.8,8.6c-4,4.4-7.2,8.7-9.5,13c-2.4,4.3-3.9,8.5-4.6,12.6
						c-0.8,4.6-0.7,9.1,0.3,13.3c1,4.2,2.9,8.2,5.7,12c2.9,4,6.4,7,10.4,9s8.5,2.9,13.5,2.8c1.1,0,2.4-0.1,3.5-0.2
						c1.2-0.1,2.3-0.2,3.4-0.4l-0.1-3.2l-0.1-3.2c-0.7,0.1-1.5,0.2-2.3,0.3s-1.6,0.1-2.4,0.1c-3.3,0.1-6.3-0.4-9.1-1.4
						c-2.8-1-5.4-2.5-7.7-4.6c-2.4-2.1-4.1-4.4-5-6.9s-1.1-5.2-0.6-8.2c1-5.6,3.7-11.4,8.3-17.2s10.8-11.8,18.9-17.7l3.6-2.7
						l3.6-2.7c3.2-2.5,6.1-5.3,8.8-8.4c2.7-3,5-6.3,7.2-9.9c2.1-3.5,3.8-7.1,5.2-10.8c1.4-3.7,2.4-7.5,3.1-11.3
						c0.4-2.3,0.6-4.8,0.5-7.5s-0.3-5.7-0.8-8.9c-0.7-4.3-1.7-7.5-3.1-9.6s-3.2-3.1-5.4-3.1c-0.8,0-1.6,0.2-2.5,0.7
						c-0.9,0.4-1.9,1.1-3.1,2c-2.8,2.3-5.2,4.8-7.3,7.4c-2.1,2.7-3.8,5.5-5.2,8.5c-1.1,2.3-2.1,4.9-2.9,7.9c-0.9,3-1.6,6.3-2.2,9.9
						c-0.3,1.5-0.4,3.7-0.5,6.2c-0.1,2.6,0,5.6,0.2,8.9l3.4-2.9l3.4-2.9c0-0.4,0.1-0.8,0.1-1.2c0.1-0.4,0.1-0.8,0.2-1.2
						c0.4-2.3,1-4.7,1.9-7.3c0.9-2.5,2-5.2,3.4-7.9c1.7-3.4,3.3-5.6,4.6-7.1s2.5-2.2,3.4-2.5c0.2-0.1,0.5-0.2,0.7-0.2
						s0.5-0.1,0.7-0.1c1.1,0,2.2,0.1,2.9,1s1,2.4,0.5,5.1c-0.4,2.3-1.2,4.7-2.4,7.2C457.9,266,456.2,268.6,454.2,271.2z"/>
					<path class="st4" d="M450.1,364.9c2.1-1,4.1-2.2,5.9-3.5s3.5-3,5.1-4.7c2-2.2,3.6-4.6,4.8-7.2c1.2-2.5,2.1-5.2,2.6-8
						c0.6-3.4,0.6-6.7,0-9.7s-1.7-5.8-3.5-8.3c-1.9-2.8-4.3-4.8-7.2-6.2c-2.8-1.4-6.2-2-9.9-1.9c-0.4,0-0.9,0-1.3,0.1
						c-0.5,0-0.9,0.1-1.4,0.2l-0.2-5.4l-0.2-5.4l-3.6,2.5l-3.6,2.5l0.1,3.8l0.1,3.8c-2.1,0.9-4.1,2.1-6,3.4s-3.6,2.9-5.3,4.6
						c-1.9,2-3.4,4.1-4.5,6.3c-1.1,2.1-1.9,4.3-2.3,6.6c-0.4,2.3-0.4,4.5-0.1,6.5s1.1,3.9,2.2,5.7c0.6,0.9,1.3,1.8,2.1,2.6
						c0.8,0.8,1.7,1.5,2.7,2.1c1.6,1,3.4,1.4,4.9,1.4s2.7-0.5,3.1-1.1c0.4-0.7,0-1.4-0.6-2.4c-0.6-0.9-1.6-2-2.4-3.2
						c-0.4-0.7-0.8-1.5-0.9-2.4c-0.2-0.9-0.2-1.9-0.1-2.9c0.2-2.2,1.2-4.4,2.6-6.2c1.5-1.8,3.4-3.4,5.6-4.4l0.6,13.9l0.6,13.9
						l0.1,3.2l0.1,3.2c0.1,1.5,0.3,3.1,0.4,4.6s0.3,3,0.4,4.5c0.1,2,0.2,4,0.1,5.7c-0.1,1.8-0.2,3.4-0.5,4.9c-0.4,2-1,3.9-1.8,5.6
						c-0.9,1.7-2,3.2-3.3,4.6c-0.9,0.9-1.8,1.6-2.7,2.2c-1,0.6-2,1.1-3,1.4c1.5-1.4,2.8-3,3.7-4.7c0.9-1.7,1.6-3.6,1.8-5.5
						c0.4-3.8-1-7.2-3.5-9.5s-6.2-3.6-10.4-3.2c-1.2,0.1-2.3,0.3-3.4,0.6s-2.2,0.8-3.2,1.3c-0.1,0.1-0.3,0.1-0.4,0.2
						s-0.3,0.2-0.4,0.2c-0.3,0.2-0.6,0.3-0.9,0.5s-0.6,0.3-0.8,0.5c-0.1,0.1-0.2,0.1-0.3,0.2c-0.1,0.1-0.2,0.1-0.3,0.2
						c-1.8,1.4-3.4,3-4.6,4.8s-2,3.9-2.3,6l0,0l0,0l0,0l0,0c0,0.1,0,0.2-0.1,0.3c0,0.1,0,0.2-0.1,0.3c0,0.1,0,0.2,0,0.2
						c0,0.1,0,0.2,0,0.2c-0.2,2.3,0.1,4.3,0.9,6.2s2.2,3.5,4.1,4.9c1.8,1.3,3.8,2.3,6.1,3c2.2,0.6,4.7,0.9,7.3,0.9
						c1.5,0,3-0.2,4.5-0.5s2.9-0.7,4.3-1.2c1.2-0.4,2.3-0.9,3.4-1.5s2.2-1.3,3.3-2c2.6-1.8,4.7-3.8,6.2-6s2.5-4.6,3-7.1
						c0.3-1.9,0.6-4.1,0.7-6.3c0.1-2.3,0.1-4.7,0-7.3l-0.4-5.8l-0.4-5.8l-0.8-16.7l-0.8-16.7c2.7,0.3,5.1,1.4,6.6,3.2
						s2.4,4.1,2.1,6.8c-0.2,1.9-0.8,4.4-1.7,6.8c-0.9,2.4-2.1,4.8-3.5,6.5l0.3,4.5L450.1,364.9z"/>
				</g>
			</g>
			<g>
				<path class="st7" d="M177.1,317c9.5-21.8,155.1-386.2,299.1-225.1c-29.2-50.3-76.1-48.7-76.1-48.7
					c-90.7,3.9-147.7,103.9-249.3,271.6C158.5,326.5,177.1,317,177.1,317z"/>
			</g>
			<path class="st4" d="M155.9,311.9c-12.6-1.7-41.8,93.1-41.2,100.9c0.6,7.7,13.5,11.7,20,9.7c10.8-3.3,47.4-101.4,42.9-107.8
				C176.3,310.1,164.5,308,155.9,311.9z"/>
			<path class="st8" d="M465.2,234.7c3.2-13.1,2.4-20.1,2.3-27c-0.2-20.7-6-29.5-1.3-46.7c1.4-5,2.5-6.5,4.7-14.8
				c2.9-10.8,2-12.3,4.8-24.3c2.9-12.3,4.6-14.6,3.9-20.2c-0.8-6-3.7-10.2-6.2-13"/>
		</g>
	</g>
</g>
</svg>
