<?xml version="1.0" encoding="utf-8"?>
<!-- Generator: Adobe Illustrator 22.1.0, SVG Export Plug-In . SVG Version: 6.00 Build 0)  -->
<svg version="1.1" id="Calque_1" xmlns="http://www.w3.org/2000/svg" xmlns:xlink="http://www.w3.org/1999/xlink" x="0px" y="0px"
	 viewBox="0 0 77.5 52" style="enable-background:new 0 0 77.5 52;" xml:space="preserve">
<style type="text/css">
	.st0{fill:none;stroke:#000000;}
</style>
<image style="display:none;overflow:visible;enable-background:new    ;" width="100" height="100" xlink:href="1409D5AA.png"  transform="matrix(0.6675 0.342 -0.342 0.6675 20.223 -29.1401)">
</image>
<path class="st0" d="M65.9,16c5,0.3,9.5,5,10.1,7.1s-5,3.1-7.7,3.9c-2.8,0.8-10.1,0.2-12.9,1.4c-2.8,1.2-27.9,20.7-29.5,21.5
	c-1.5,0.8-5.2,1.5-7.2,0.4c-2.1-1.1,14.8-19.9,13.7-21s-19.9-1.1-22.8-3.5c-3-2.4-9.2-14.6-8.2-16.5c0,0,0.1-1.6,2.2-0.8
	c2.1,0.8,10.1,8.3,14.3,9.5C22,19.1,60.9,15.7,65.9,16z"/>
<line class="st0" x1="56.8" y1="28" x2="48.6" y2="28.4"/>
<path class="st0" d="M48.4,16.8c0,0-24.3-14.7-26.7-15.1c-2.3-0.4-5.1,0-6,1S28.5,18,28.5,18"/>
<ellipse cx="26.6" cy="23.2" rx="1" ry="1.9"/>
<ellipse cx="32.6" cy="23.2" rx="1" ry="1.9"/>
<ellipse cx="38.5" cy="23.2" rx="1" ry="1.9"/>
<ellipse cx="44.4" cy="22.8" rx="1" ry="1.9"/>
<ellipse cx="50.2" cy="22.8" rx="1" ry="1.9"/>
<ellipse cx="56.1" cy="22.4" rx="1" ry="1.9"/>
<ellipse cx="62" cy="22.4" rx="1" ry="1.9"/>
</svg>
